<svg width="16" height="16" viewBox="0 0 16 16" fill="none" xmlns="http://www.w3.org/2000/svg">
<path fill-rule="evenodd" clip-rule="evenodd" d="M3.44813 7.99999C3.44813 7.48037 3.53438 6.98212 3.6885 6.51487L0.992254 4.45599C0.466754 5.52287 0.170753 6.72512 0.170753 7.99999C0.170753 9.27387 0.466503 10.4752 0.991129 11.5415L3.68588 9.47862C3.53325 9.01349 3.44813 8.51712 3.44813 7.99999Z" fill="#FBBC05"/>
<path fill-rule="evenodd" clip-rule="evenodd" d="M8.18212 3.27275C9.311 3.27275 10.3306 3.67275 11.1317 4.32725L13.4622 2C12.0421 0.763625 10.2214 0 8.18212 0C5.01612 0 2.29512 1.8105 0.992249 4.456L3.68837 6.51487C4.30962 4.62912 6.0805 3.27275 8.18212 3.27275Z" fill="#EA4335"/>
<path fill-rule="evenodd" clip-rule="evenodd" d="M8.18212 12.7272C6.08062 12.7272 4.30975 11.3709 3.6885 9.48512L0.992249 11.5436C2.29512 14.1895 5.01612 16 8.18212 16C10.1361 16 12.0017 15.3061 13.4019 14.0061L10.8426 12.0276C10.1205 12.4825 9.21112 12.7272 8.18212 12.7272Z" fill="#34A853"/>
<path fill-rule="evenodd" clip-rule="evenodd" d="M15.8293 8C15.8293 7.52725 15.7564 7.01813 15.6471 6.5455H8.18213V9.63638H12.4791C12.2643 10.6903 11.6795 11.5004 10.8426 12.0276L13.4019 14.0061C14.8726 12.6411 15.8293 10.6076 15.8293 8Z" fill="#4285F4"/>
</svg>
